# xmcd
#
# Track frame offsets: 
#        150
#        14270
#        31157
#        44515
#        55367
#        76735
#        95477
#        114182
#        130077
#        156962
#        168880
#        213259
#        236822
#        255175
#        280817
#        307660
#
# Disc length: 4452 seconds
#
# Revision: 3
# Processed by: cddbd v1.4PL0 Copyright (c) Steve Scherf et al.
# Submitted via: ExactAudioCopy v0.90b4
#
DISCID=bf116210
DTITLE=BB King - How Blue Can You Get [CD1]
DYEAR=1964
DGENRE=Blues
TTITLE0=Everyday I Have the Blues
TTITLE1=Sweet Little Angel
TTITLE2=Please Love Me
TTITLE3=You Upset Me
TTITLE4=Gambler's Blues
TTITLE5=Buzz Me
TTITLE6=Baby Get Lost
TTITLE7=Blind Love
TTITLE8=Don't Answer the Door
TTITLE9=Please Accept My Love
TTITLE10=Worry, Worry
TTITLE11=How Blue Can You Get?
TTITLE12=Eyesight to the Blind
TTITLE13=Chains and Things*
TTITLE14=Sweet Sixteen *
TTITLE15=The Thrill is Gone *
EXTD=
EXTT0=
EXTT1=
EXTT2=
EXTT3=
EXTT4=
EXTT5=
EXTT6=
EXTT7=
EXTT8=
EXTT9=
EXTT10=
EXTT11=
EXTT12=
EXTT13=
EXTT14=
EXTT15=
PLAYORDER=
